<svg width="23" height="22" viewBox="0 0 23 22" fill="none" xmlns="http://www.w3.org/2000/svg">
<path d="M11.4519 1.94897C14.2553 1.93319 14.5879 1.94182 15.6959 1.98633C18.5421 2.09981 19.8788 3.44243 20.0242 6.26616C20.0812 7.37273 20.0927 7.70517 20.1085 10.5086C20.1242 13.313 20.1156 13.6446 20.072 14.7518C19.9575 17.5743 18.6395 18.9345 15.7921 19.0801C14.6847 19.137 14.354 19.1494 11.5488 19.1652C8.74535 19.181 8.4128 19.1723 7.30565 19.1278C4.45246 19.0135 3.12273 17.6647 2.97736 14.8471C2.92038 13.7406 2.90802 13.409 2.89223 10.6047C2.87645 7.80121 2.88596 7.46952 2.9296 6.36151C3.04408 3.5372 4.36207 2.17876 7.20943 2.03323C8.31688 1.97712 8.64844 1.96475 11.4519 1.94897ZM11.4412 0.0563735C8.58966 0.0724254 8.23273 0.0866848 7.11304 0.143739C3.30083 0.340201 1.19353 2.46785 1.04001 6.28552C0.9947 7.40667 0.984459 7.76373 1.00051 10.6153C1.01656 13.4669 1.03083 13.8247 1.08788 14.9444C1.28434 18.7566 3.41199 20.8639 7.22966 21.0174C8.35081 21.0619 8.70787 21.0721 11.5594 21.056C14.411 21.04 14.7688 21.0257 15.8885 20.9687C19.6972 20.7722 21.8098 18.6446 21.9607 14.8269C22.006 13.7066 22.0162 13.3487 22.0002 10.4971C21.9841 7.64552 21.9699 7.2886 21.9128 6.1689C21.7199 2.36018 19.5896 0.249384 15.7719 0.0958716C14.6508 0.0505569 14.2928 0.0403215 11.4412 0.0563735V0.0563735ZM11.47 5.16454C8.49242 5.1813 6.09192 7.60898 6.10868 10.5866C6.12544 13.5641 8.55312 15.9655 11.5307 15.9487C14.5083 15.932 16.9088 13.5043 16.892 10.5259C16.8752 7.54828 14.4476 5.14778 11.47 5.16454ZM11.52 14.0562C9.5872 14.067 8.01129 12.5096 8.0004 10.5759C7.98952 8.64306 9.5478 7.06714 11.4806 7.05626C13.4135 7.04538 14.9894 8.60366 15.0003 10.5365C15.0112 12.4702 13.4529 14.0453 11.52 14.0562ZM17.0669 3.66039C16.3704 3.66431 15.8092 4.23185 15.8131 4.92747C15.817 5.62308 16.3846 6.18427 17.0811 6.18035C17.7767 6.17643 18.337 5.60889 18.3331 4.91328C18.3291 4.21767 17.7625 3.65647 17.0669 3.66039Z" fill="#ABBCD5"/>
</svg>
