<svg width="21" height="18" viewBox="0 0 21 18" fill="none" xmlns="http://www.w3.org/2000/svg">
<path d="M20.9622 2.56742C20.1915 2.91476 19.3625 3.15043 18.4916 3.25946C19.3784 2.72158 20.057 1.87338 20.3725 0.865334C19.5432 1.36351 18.6229 1.72745 17.6423 1.92634C16.8527 1.0934 15.7289 0.576468 14.4899 0.583442C11.7084 0.5991 9.679 3.20582 10.3224 5.89636C6.74183 5.73714 3.55773 4.04004 1.41771 1.44542C0.299879 3.38811 0.857505 5.91814 2.7827 7.19007C2.07733 7.17129 1.41125 6.98167 0.829317 6.66206C0.793303 8.65817 2.23442 10.5173 4.30872 10.9213C3.70328 11.0892 3.03939 11.1314 2.36317 11.0057C2.92054 12.7141 4.51828 13.9503 6.40494 13.9747C4.60172 15.405 2.32332 16.0522 0.0363422 15.7955C1.94982 17.0072 4.21917 17.7075 6.65163 17.6938C14.6508 17.6488 19.132 10.8676 18.8249 4.80986C19.6632 4.197 20.3896 3.43428 20.9622 2.56742Z" fill="#ABBCD5"/>
</svg>
